<?xml version="1.0" encoding="utf-8"?>
<!-- Generator: Adobe Illustrator 16.0.0, SVG Export Plug-In . SVG Version: 6.00 Build 0)  -->
<!DOCTYPE svg PUBLIC "-//W3C//DTD SVG 1.1//EN" "http://www.w3.org/Graphics/SVG/1.1/DTD/svg11.dtd">
<svg version="1.1" xmlns="http://www.w3.org/2000/svg" xmlns:xlink="http://www.w3.org/1999/xlink" x="0px" y="0px" width="60px"
	 height="60px" viewBox="0 0 60 60" enable-background="new 0 0 60 60" xml:space="preserve">
<g id="Layer_1" display="none">
	<path display="inline" fill="#010101" d="M41.857,2.651c-4.407,0-8.604,1.571-11.857,4.38c-3.254-2.809-7.448-4.38-11.857-4.38
		c-9.881,0-17.919,7.853-17.919,17.506c0,16.483,27.2,35.416,28.359,36.215L30,57.349l1.417-0.977
		c1.158-0.798,28.359-19.731,28.359-36.215C59.776,10.504,51.738,2.651,41.857,2.651z M43.268,33.177H33.177v10.091h-6.354V33.177
		H16.731v-6.354h10.091V16.732h6.354v10.091h10.091V33.177z"/>
</g>
<g id="Layer_2" display="none">
	<g display="inline">
		<path fill-rule="evenodd" clip-rule="evenodd" d="M25.183,39.481c0,1.878-0.008,3.158-0.374,4.625
			c-0.221,0.881-1.074,1.584-2.15,1.755c-1.149,0.184-2.013-0.38-2.715-1.24c-1.141-1.398-1.532-3.099-1.791-4.806
			c-0.411-2.718-0.282-5.431,0.502-8.085c0.134-0.453,0.324-0.899,0.552-1.315c0.724-1.319,1.905-1.518,3.03-0.509
			c1.289,1.156,1.832,2.727,2.167,4.336C24.757,35.931,24.92,37.658,25.183,39.481z M19.685,31.256
			c-1.18,2.798-1.494,5.671-0.961,8.621c0.288,1.593,0.75,3.139,1.749,4.458c0.981,1.294,2.023,1.312,2.989,0.081
			c-1.37,0.454-1.913,0.278-2.782-0.928c-0.191-0.264-0.365-0.545-0.5-0.841c-1.138-2.492-1.377-5.116-1.069-7.802
			C19.248,33.644,19.49,32.453,19.685,31.256z"/>
		<path fill-rule="evenodd" clip-rule="evenodd" d="M2.269,33.979"/>
		<path fill-rule="evenodd" clip-rule="evenodd" d="M19.685,31.256c-0.194,1.197-0.437,2.388-0.575,3.59
			c-0.308,2.686-0.069,5.31,1.069,7.802c0.135,0.296,0.309,0.577,0.5,0.841c0.869,1.206,1.412,1.382,2.782,0.928
			c-0.965,1.231-2.008,1.213-2.989-0.081c-0.999-1.319-1.46-2.865-1.749-4.458C18.191,36.927,18.505,34.054,19.685,31.256z"/>
		<path d="M59.767,31.608c-0.332-2.194-2.133-4.061-3.955-5.199c0.107,0.126,0.731,0.598,0.845,0.721
			c0.112,0.12,0.224,0.24,0.333,0.361c0.236,0.262,0.462,0.53,0.644,0.828c0.309,0.509,0.435,1.13,0.521,1.773
			c-1.225-1.909-2.684-3.511-4.718-4.568c0.792,0.295,1.583,0.59,2.376,0.885c-0.913-0.48-1.779-1.113-2.746-1.414
			c-3.893-1.209-7.802-2.373-11.738-3.43c-1.471-0.395-2.734-0.98-3.757-2.105c-0.526-0.578-1.092-1.12-1.654-1.661
			c-1.269-1.216-2.633-2.308-4.439-2.542c-2.728-0.353-7.458-1.47-15.494-1.066c-3.983,0.2-6.051,1.073-8.198,2.859
			c-1.726,1.436-3.318,3.031-5,4.522c-2.503,2.217-2.855,5.125-2.696,8.206c0.006,0.116,0.14,0.224,0.131,0.212
			c0.058-0.896-0.014-2.282,0.337-3.315c0.353-1.038,1.13-1.723,1.532-1.735c1.09-0.035,1.276,1.148,1.587,2.103
			c0.577,1.767,0.421,3.714,0.517,5.802c0.025,0.559,0.147,0.896,0.627,1.135c2.135,1.064,3.84,1.915,6,2.925
			c1.822,0.854,3.699,1.591,5.495,2.352c0-1.499-0.062-2.904,0.015-4.303c0.112-2.035,0.313-4.066,1.463-5.848
			c0.525-0.813,1.268-1.237,2.248-1.251c1.637-0.025,2.908,0.722,3.83,1.988c2.959,4.056,3.51,8.728,3.333,13.565
			c-0.014,0.377-0.051,0.752-0.084,1.225c2.492,0.116,4.891,0.566,7.287,0.59c4.832,0.054,9.688-0.296,14.41-1.346
			c3.741-0.831,6.188-1.472,8.94-2.834c1.057-0.524,1.4-1.175,1.637-2.293C59.896,36.389,60.131,34.013,59.767,31.608z
			 M57.066,29.794c0.096,0.153,0.221,0.349,0.427,0.675c-5.071,2.414-10.406,2.362-15.674,2.159
			c-0.004-0.108,0.021-0.707,0.018-0.812c1.995,0,4.008,0.179,5.985-0.036C52.851,31.233,56.342,30.134,57.066,29.794z
			 M50.421,29.173c-0.621,0.605-1.267,0.629-1.717,0.082c-1.704-2.068-4.01-3.166-6.414-4.102c-1.317-0.512-2.679-0.907-3.988-1.431
			C42.607,24.907,46.986,25.932,50.421,29.173z M10.989,15.843c0.707-0.255,1.241-0.16,1.48,0.616
			c0.561,1.823,1.103,3.653,1.693,5.615L7.64,21.337c-0.523-0.517-0.306-1.083-0.218-1.729C7.714,17.452,9.162,16.5,10.989,15.843z
			 M5.007,20.486c0.828-0.804,1.655-1.606,2.437-2.366c-0.221,0.677-0.336,1.558-0.789,2.202c-0.238,0.337-1.069,0.257-1.633,0.365
			C5.018,20.62,5.013,20.553,5.007,20.486z M16.963,28.644c-3.546-1.513-7.101-2.986-10.814-3.991l12.124,2.767
			C17.786,27.874,17.379,28.255,16.963,28.644z M17.507,21.648c-1.867,0.065-1.927,0.065-2.411-1.718
			c-0.358-1.322-0.634-2.665-0.979-4.137c3-0.606,5.956-0.837,8.92-0.653c2.776,0.173,5.546,0.479,8.307,0.833
			c0.823,0.106,1.717,0.414,2.372,0.904c1.566,1.174,3.008,2.513,4.501,3.784c-0.046,0.076-0.093,0.151-0.14,0.228
			c-1.994,0.092-3.987,0.201-5.983,0.271C27.232,21.332,22.369,21.479,17.507,21.648z M28.965,27.473
			c3.293-1.198,9.029,3.323,8.21,4.532C36.357,33.215,24.742,29.007,28.965,27.473z M58.642,39.28
			c-0.024,0.182-0.341,0.385-0.561,0.466c-4.426,1.66-9.112,2.894-13.885,3.519c-2.393,0.314-4.717,0.396-7.226,0.313
			c0.194-1.949,0.371-3.642,0.549-5.432c7.413-0.017,14.653-0.015,21.652-3.304C58.992,36.413,58.847,37.851,58.642,39.28z"/>
		<ellipse fill-rule="evenodd" clip-rule="evenodd" cx="1.994" cy="29.912" rx="1.073" ry="4.076"/>
	</g>
</g>
<g id="Layer_3" display="none">
	<g display="inline">
		<circle fill="#010101" cx="50.37" cy="12.785" r="4.035"/>
		<ellipse fill="#010101" cx="24.708" cy="31.415" rx="2.516" ry="2.376"/>
		<path fill="#010101" d="M34.623,33.791c1.386,0,2.514-1.065,2.514-2.376s-1.128-2.376-2.514-2.376
			c-1.392,0-2.519,1.065-2.519,2.376S33.231,33.791,34.623,33.791z"/>
		<path fill="#010101" d="M59.755,30.156L55.88,18.616c-0.205-0.611-0.776-0.978-1.385-0.972v-0.021h-8.784v0.024
			c-0.625-0.018-1.212,0.347-1.419,0.969l-3.877,11.54c-0.005,0.017-0.001,0.027-0.005,0.043l-3.273,4.004h-5.032v0.009
			c-0.387-0.009-0.756,0.177-0.885,0.492l-1.557,3.766l-1.557-3.766c-0.127-0.315-0.495-0.501-0.881-0.492v-0.009h-5.028
			l-2.621-3.204c0.077-0.269,0.102-0.557,0.008-0.842l-3.879-11.541c-0.201-0.608-0.772-0.974-1.381-0.972v-0.021H5.535v0.024
			c-0.621-0.018-1.208,0.348-1.412,0.969l-3.878,11.54c-0.251,0.759,0.161,1.579,0.917,1.828c0.757,0.251,1.58-0.16,1.829-0.915
			l2.544-7.57v13.759v11.972c0,1.113,0.905,2.021,2.019,2.021c1.116,0,2.018-0.907,2.018-2.021V37.258h0.715v11.972
			c0,1.113,0.903,2.021,2.019,2.021c1.113,0,2.018-0.907,2.018-2.021V37.258V23.595l2.51,7.474c0.196,0.587,0.736,0.956,1.324,0.975
			l3.236,3.958c0.094,0.112,0.219,0.167,0.352,0.192v7.965v6.064c0,0.569,0.564,1.027,1.259,1.027c0.693,0,1.256-0.46,1.256-1.027
			v-6.064h0.447v6.064c0,0.569,0.563,1.027,1.259,1.027c0.695,0,1.256-0.46,1.256-1.027v-6.064v-6.98l1.583,3.839
			c0.005,0.01,0.014,0.018,0.021,0.026c0.03,0.065,0.073,0.122,0.123,0.176c0.024,0.025,0.042,0.049,0.065,0.069
			c0.048,0.041,0.106,0.07,0.166,0.102c0.044,0.025,0.089,0.045,0.137,0.062c0.021,0.007,0.034,0.021,0.055,0.024
			c0.034,0.01,0.068,0.007,0.103,0.012c0.062,0.013,0.122,0.019,0.186,0.019c0.065,0,0.124-0.006,0.185-0.019
			c0.035-0.005,0.071-0.002,0.104-0.012c0.022-0.003,0.034-0.018,0.054-0.024c0.05-0.018,0.094-0.037,0.138-0.062
			c0.062-0.032,0.117-0.065,0.167-0.105c0.022-0.018,0.04-0.041,0.061-0.062c0.054-0.056,0.096-0.118,0.127-0.183
			c0.004-0.01,0.016-0.017,0.02-0.023l1.587-3.842v0.687l-2.47,6.214h2.47v0.083v6.064c0,0.567,0.56,1.027,1.259,1.027
			c0.694,0,1.259-0.458,1.259-1.027v-6.064h0.445v6.064c0,0.567,0.563,1.027,1.257,1.027c0.696,0,1.259-0.458,1.259-1.027v-6.064
			v-0.083h2.692l-2.692-6.205v-1.677c0.133-0.025,0.258-0.082,0.35-0.192l3.323-4.061c0.027,0.01,0.048,0.034,0.076,0.043
			c0.759,0.251,1.579-0.16,1.83-0.915l2.548-7.579v1.353l-3.636,12.062h3.636v0.354v11.972c0,1.113,0.898,2.021,2.015,2.021
			s2.019-0.907,2.019-2.021V37.258h0.713v11.972c0,1.113,0.903,2.021,2.02,2.021c1.115,0,2.019-0.907,2.019-2.021V37.258v-0.354
			h3.257l-3.257-11.74v-1.579l2.514,7.483c0.249,0.755,1.068,1.166,1.827,0.915C59.595,31.734,60.007,30.914,59.755,30.156z"/>
		<circle fill="#010101" cx="9.57" cy="12.785" r="4.035"/>
	</g>
</g>
<g id="Layer_4" display="none">
	<g display="inline">
		<g>
			<path fill="#010101" d="M40.984,3.478h-21.97L3.476,19.012v21.977l15.539,15.534h21.97l15.54-15.534V19.012L40.984,3.478z
				 M55.901,40.729l-15.174,15.17H19.273L4.098,40.729V19.27L19.273,4.1h21.454l15.174,15.17V40.729z"/>
		</g>
		<g>
			<path fill="#010101" d="M13.618,25.14c-0.752,0-0.968,0.027-0.968,0.027l-0.477,1.909c0,0,0.462,0.009,1.227,0.009
				c0.845,0,1.503-0.229,1.672-1.036C15.259,25.175,14.37,25.14,13.618,25.14z"/>
			<path fill="#010101" d="M41.886,34.726c-1.17,0-1.319,1.815-1.319,2.09c0,0.594,0.357,0.857,0.761,0.857
				c0.796,0,1.092-0.819,1.227-1.43c0.052-0.217,0.088-0.433,0.088-0.642C42.642,34.852,42.16,34.726,41.886,34.726z"/>
			<path fill="#010101" d="M44.934,36.867c0,0.451,0.136,0.64,0.355,0.64c0.663,0,1.412-1.442,1.585-2.333l0.055-0.282
				c-0.142-0.04-0.308-0.072-0.503-0.072C45.376,34.819,44.934,35.961,44.934,36.867z"/>
			<path fill="#010101" d="M40.331,5.057H19.668L5.054,19.666v20.666l14.614,14.612h20.663l14.612-14.612V19.666L40.331,5.057z
				 M39.444,24.816c0,0,0.46-0.806,1.311-0.826c0.894-0.024,1.069,0.812,1.069,0.812l1.264,5.646h-1.629l-0.284-1.581h-2.764
				l-0.99,1.594h-1.64L39.444,24.816z M16.155,30.455c-0.053,0-0.104,0.004-0.153,0.006h-1.627
				c-0.539-0.905-1.426-2.371-1.426-2.371h-1.014l-0.513,2.371H9.775l1.535-6.243c0,0,1.042-0.048,2.19-0.048
				c1.151,0,3.242-0.115,3.273,1.465c0.033,1.538-1.362,2.14-2.14,2.352C14.635,27.986,16.175,30.455,16.155,30.455z M19.979,30.448
				h-1.744l1.521-6.222h1.744L19.979,30.448z M32.747,30.384l0.065-4.949c0,0-3.274,4.726-3.454,4.968h-1.576l-1.429-4.965
				l-2.329,4.946h-1.785l3.209-6.556c0.345-0.59,0.606-0.687,0.939-0.719c0.665-0.064,0.896,0.604,0.903,0.627l1.464,5.106
				l3.764-5.182c0.256-0.255,0.476-0.537,0.92-0.557c0.882-0.043,0.94,0.658,0.943,0.685l0.105,6.595H32.747z M39.415,33.83
				l-0.073,0.015c-0.336-0.423-0.915-0.489-1.151-0.489c-0.716,0-1.088,0.433-1.088,0.865c0,0.438,0.298,0.616,0.832,0.893
				l0.218,0.102c0.357,0.203,1.004,0.55,1.004,1.366c0,0.735-0.564,1.679-2.001,1.679c-0.393,0-0.788-0.067-1.155-0.218
				c-0.205-0.078-0.281-0.149-0.409-0.253l-0.021-0.061l0.181-0.653l0.073-0.014c0.074,0.103,0.143,0.191,0.306,0.298
				c0.321,0.216,0.682,0.273,0.954,0.273c0.683,0,1.22-0.354,1.22-0.974c0-0.328-0.186-0.496-0.263-0.572
				c-0.136-0.126-0.177-0.15-0.581-0.365l-0.236-0.133c-0.208-0.115-0.396-0.209-0.528-0.321c-0.276-0.232-0.439-0.58-0.439-0.943
				c0-0.792,0.58-1.577,1.903-1.577c0.806,0,1.238,0.281,1.439,0.407l0.022,0.057L39.415,33.83z M43.326,36.472
				c-0.163,0.641-0.617,1.75-2.014,1.75c-0.99,0-1.535-0.518-1.535-1.521c0-0.91,0.482-2.518,2.108-2.518
				c0.976,0,1.553,0.543,1.553,1.502C43.438,35.945,43.395,36.214,43.326,36.472z M47.141,38.146h-0.817
				c0.07-0.322,0.204-0.789,0.416-1.436l-0.016-0.007c-0.298,0.591-0.866,1.527-1.749,1.527c-0.576,0-0.891-0.377-0.891-1.213
				c0-1.458,0.765-2.853,2.481-2.853c0.458,0,0.899,0.042,1.301,0.12C47.479,36.277,47.308,37.177,47.141,38.146z M50.942,34.883
				h-0.998l-0.363,1.923c-0.103,0.543-0.024,0.694,0.331,0.694c0.213,0,0.369-0.023,0.519-0.056l-0.063,0.687
				c-0.242,0.054-0.533,0.085-0.764,0.085c-0.818,0-1.049-0.386-0.867-1.302l0.387-2.031h-0.739l0.133-0.654h0.732l0.238-1.245
				l0.859-0.181l-0.276,1.426h1.008L50.942,34.883z M50.926,25.303c-0.254-0.096-1.054-0.186-1.854-0.154
				c-0.616,0.025-2.188,0.21-2.582,2.059c-0.312,1.468,0.695,2.086,1.509,2.162c1.793,0.167,2.494-0.466,2.524-0.306
				c0.003,0.021-0.116,0.914-0.116,0.947c-0.004,0.072-0.913,0.647-2.622,0.567c-3.921-0.183-4.361-6.018,0.912-6.629
				c0.896-0.102,2.082,0.157,2.381,0.313C51.092,24.272,50.942,25.309,50.926,25.303z"/>
			<polygon fill="#010101" points="40.514,25.345 38.983,27.911 41.019,27.911 			"/>
		</g>
	</g>
</g>
<g id="Layer_5">
	<circle cx="28.934" cy="8.374" r="5.656"/>
	<path d="M46.547,25.841c0,0-0.713-1.149-2.141-1.654l-2.082-6.563c0,0-0.207-0.781-0.955-1.304l-5.502-3.844
		c-0.205-0.125-0.42-0.209-0.641-0.266c-1.377,1.925-3.626,3.183-6.173,3.183c-2.586,0-4.867-1.295-6.238-3.27
		c-0.159,0-0.27,0.001-0.276,0.002c-0.815,0.03-1.598,0.46-2.034,1.221l-8.066,14.895c-0.672,1.171-0.267,2.665,0.903,3.338
		c0.384,0.22,0.802,0.324,1.214,0.324c0.847,0,1.671-0.44,2.123-1.229l1.185-2.187l3.73-6.889l0.054-0.1v11.069L19.926,53
		l-0.185,2.184c-0.113,1.345,0.885,2.527,2.231,2.642c0.047,0.003,0.095,0.005,0.141,0.007c0.022,0,0.045,0.002,0.067,0.002
		c1.258,0,2.326-0.964,2.433-2.239l2.497-18.866h2.567l1.668,18.705c0.024,1.335,1.114,2.4,2.443,2.4c0.016,0,0.031,0,0.047,0
		c1.35-0.025,2.424-1.14,2.398-2.489c0,0-0.721-27.631-0.732-27.655v-9.451l0.031,0.023l2.426,1.766l1.486,4.687
		c-1.191,0.871-1.824,2.401-1.873,3.921c-0.055,1.765,2.193,1.43,2.379,0.427c0.166-0.893,0.229-1.387,0.398-1.603
		c0.416,0.831,1.27,1.344,2.182,1.343c0.244,0,0.492-0.036,0.738-0.115c0.535-0.168,0.963-0.511,1.26-0.939
		c0.145,0.378,0.133,0.654,0.15,0.894c0.029,0.336,0.049,28.182,0.049,28.182s0.076,1.041,1.283,1.041
		c1.209,0,1.229-1.134,1.229-1.134V28.28C47.24,28.28,47.262,26.956,46.547,25.841z"/>
</g>
<g id="Layer_6" display="none">
	<g display="inline">
		<g>
			<g>
				<path fill="#010101" d="M45.938,28.849c-1.765-2.268-4.655-3.854-8.693-4.416l-6.129,15.225c0,0,3.583,2.354,2.754,5.532
					c-0.622,2.379-2.215,4.844-4.674,4.844h-8.387v5.998h20.452c0.043-0.436,0.07-0.947,0.07-1.56v-12.48
					c0.915,3.037,1.637,7.331,1.637,13.326c0,0.246,0.027,0.483,0.072,0.714h6.987c0.046-0.23,0.071-0.468,0.071-0.714
					C50.099,41.625,48.595,32.067,45.938,28.849z"/>
				<circle fill="#010101" cx="31.116" cy="13.323" r="9.355"/>
			</g>
		</g>
		<g>
			<path fill="#010101" d="M28.879,41.248l-0.002-0.011c0,0-8.161-1.997-12.962-2.032c-1.938-0.015-3.764,0.021-5.673,1.077
				c-0.209,1-0.129,0.754-0.275,1.785c-0.198,1.408,0.046,3.016,0.928,4.133c1.096,1.382,1.711,2.105,8.81,2.105
				c0-0.016,8.571-0.048,8.571-0.048c1.951,0,3.537-1.588,3.537-3.537C31.812,42.979,30.542,41.534,28.879,41.248z"/>
			<path fill="#010101" d="M34.229,24.149l-3.114,2.012l-2.779-2.419c-0.006,0.003-5.115,0.691-7.528,1.987l7.972,12.669
				L34.229,24.149z"/>
		</g>
		<path fill="#010101" d="M18.509,26.665c0,0-1.724,0.52-3.79,3.079c-1.919,2.375-3.591,7.809-3.591,7.809s4.105-0.524,8.152-0.125
			c4.047,0.399,6.611,1.363,6.611,1.363L18.509,26.665z"/>
	</g>
</g>
<g id="Layer_7" display="none">
	<g display="inline">
		<g>
			<g>
				<path fill="#010101" d="M33.99,32.4v1.58h-5.269v11.831H47.31V33.98h-5.673V32.4c0-0.572-0.518-1.036-1.154-1.036h-0.981
					c-0.035-0.354-1.779-14.951-5.67-17.183c-3.034-1.739-5.258-1.808-6.13-2l-1.706,1.535l-1.653-1.552
					c-0.006,0.001-0.011,0.001-0.015,0.003c-1.566,0.221-3.661-0.226-6.489,2.387c-2.829,2.613-3.586,6.747-5.092,15.942
					c-0.214,1.297,0.162,2.256,1.75,2.498c1.588,0.241,2.412-0.735,2.604-1.915c0.543-3.311,2.053-10.632,1.894-7.556l0.352,32.381
					c0,1.553,1.406,2.809,3.14,2.809s3.139-1.258,3.139-2.809l-0.002-19.518c0.125,0.006,0.248,0.013,0.373,0.013
					c0.026,0,0.049-0.002,0.075-0.002l-0.003,19.507c0,1.551,1.407,2.809,3.139,2.809c1.733,0,3.138-1.258,3.138-2.809l0.001-8.842
					h-4.994V32.796h5.635l0.019-8.253l-0.008-1.72c-0.004-2.46,2.474,8.445,2.504,8.541h-0.354
					C34.51,31.364,33.99,31.828,33.99,32.4z M25.979,28.533l-2.175-2.607l2.175-11.981h0.033l2.23,11.981L25.979,28.533z
					 M37.979,33.082c1.248,0,1.487-0.367,1.504-0.854h1c0.106,0,0.191,0.078,0.191,0.173v1.58h-5.717V32.4
					c0-0.095,0.083-0.173,0.188-0.173h0.605C35.862,32.779,36.73,33.082,37.979,33.082z"/>
			</g>
		</g>
		<circle fill="#010101" cx="26.088" cy="6.512" r="5.226"/>
	</g>
</g>
<g id="Layer_8" display="none">
	<g display="inline">
		<path fill-rule="evenodd" clip-rule="evenodd" d="M54.003,11.587c-1.015,1.52-2.107,2.986-3.194,4.456
			c-3.944,5.336-8.618,10.036-13.07,14.928c-1.124,1.239-2.273,2.456-3.36,3.727c-3.181,3.716-6.703,7.091-10.496,10.164
			c-2.485,2.012-5.128,3.831-7.707,5.727c-0.264,0.193-0.565,0.343-0.862,0.484c-0.503,0.241-0.959,0.279-1.431-0.16
			c-0.452-0.422-0.497-0.894-0.284-1.372c0.538-1.206,1.088-2.409,1.718-3.569c2.474-4.551,5.329-8.861,8.516-12.941
			c1.639-2.096,3.456-4.054,5.187-6.079c3.259-3.812,6.44-7.695,9.791-11.424c3.119-3.471,6.375-6.823,10.033-9.749
			c1.505-1.204,5.592-3.007,6.814-2.17C56.88,4.445,55.198,9.801,54.003,11.587z M52.948,11.448c0.673-0.449,0.974-1.122,0.892-1.86
			c-0.151-1.348-0.947-2.254-2.072-2.889c-0.876-0.492-1.809-0.656-2.724-0.092c-0.249,0.153-0.416,0.441-0.623,0.667
			c0.24,0.15,0.477,0.306,0.721,0.448c0.087,0.053,0.193,0.077,0.294,0.107c1.379,0.417,2.359,1.281,2.946,2.605
			C52.532,10.776,52.745,11.09,52.948,11.448z"/>
		<path fill-rule="evenodd" clip-rule="evenodd" d="M3.917,15.345c0.575-0.577,1.177-1.13,1.721-1.734
			c1.284-1.429,2.796-1.916,4.73-1.587c3.427,0.58,6.884,0.98,10.329,1.462c3.375,0.471,6.749,0.955,10.124,1.426
			c2.1,0.295,4.202,0.579,6.408,0.881c-2.724,3.208-5.396,6.357-8.097,9.54c-0.342-0.243-0.673-0.438-0.957-0.685
			c-1.708-1.492-3.685-2.372-5.875-2.981c-5.155-1.436-10.268-3.024-15.394-4.56c-0.698-0.209-1.398-0.433-2.062-0.727
			c-0.348-0.155-0.622-0.475-0.928-0.721C3.917,15.554,3.917,15.45,3.917,15.345z M8.381,14.863
			c-0.129,0.077-0.305,0.183-0.482,0.289c0.142,0.152,0.258,0.349,0.432,0.447c0.189,0.107,0.427,0.133,0.647,0.182
			c1.508,0.337,3.017,0.671,4.524,1.006c4.424,0.982,8.847,1.969,13.272,2.937c0.324,0.071,0.848,0.29,0.947-0.182
			c0.094-0.447-0.445-0.486-0.787-0.562c-5.016-1.118-10.032-2.23-15.049-3.342C10.75,15.387,9.613,15.136,8.381,14.863z"/>
		<path fill-rule="evenodd" clip-rule="evenodd" d="M53.099,50.627c-0.375-1.301-0.692-2.617-1.039-3.93
			c-1.704-6.466-3.409-12.934-5.115-19.4c-0.322-1.218-0.649-2.436-1.002-3.75c-2.854,3.109-5.642,6.144-8.464,9.218
			c0.965,1.034,1.896,2.021,2.812,3.023c0.185,0.198,0.345,0.437,0.452,0.684c0.84,1.909,1.657,3.83,2.491,5.738
			c1.89,4.335,3.777,8.67,5.682,12.997c0.172,0.393,0.415,0.768,0.692,1.094c0.355,0.424,0.634,0.396,0.983-0.027
			c0.574-0.7,1.182-1.377,1.698-2.118C53.025,53.102,53.487,51.967,53.099,50.627z M49.969,51.41
			c0.061,0.162,0.107,0.328,0.18,0.553c-0.072,0.111-0.137,0.305-0.261,0.361c-0.086,0.039-0.307-0.073-0.38-0.179
			c-0.146-0.209-0.253-0.454-0.345-0.694l-6.66-17.437c-0.093-0.245-0.184-0.495-0.213-0.75c-0.015-0.123,0.086-0.331,0.188-0.374
			c0.094-0.041,0.306,0.051,0.388,0.148c0.138,0.172,0.238,0.384,0.318,0.592"/>
		<path fill-rule="evenodd" clip-rule="evenodd" d="M19.224,49.849c1.382-1.058,2.706-2.07,4.077-3.119
			c0.297,0.712,0.587,1.358,0.841,2.019c0.552,1.441,1.139,2.876,1.608,4.345c0.375,1.18-0.067,1.551-0.937,2.176
			c-0.407,0.29-0.771,0.041-1.053-0.273c-0.792-0.881-1.573-1.771-2.356-2.66C20.691,51.525,19.982,50.714,19.224,49.849z"/>
		<path fill-rule="evenodd" clip-rule="evenodd" d="M16.935,41.13c-0.877,1.508-1.712,2.941-2.57,4.413
			c-1.026-0.703-2.011-1.377-2.995-2.051c-0.717-0.491-1.439-0.975-2.144-1.483c-0.445-0.32-1.159-0.58-0.844-1.295
			c0.425-0.961,0.859-1.444,1.903-1.249c1.513,0.285,3.005,0.692,4.5,1.062C15.473,40.698,16.152,40.91,16.935,41.13z"/>
		<path fill-rule="evenodd" clip-rule="evenodd" d="M52.464,44.084c-0.384-1.455-0.72-2.782-1.088-4.101
			c-0.129-0.456,0.188-0.66,0.462-0.735c0.543-0.152,1.12-0.251,1.679-0.229c0.264,0.008,0.615,0.294,0.747,0.544
			c0.348,0.668,0.308,1.433-0.047,2.055C53.741,42.455,53.104,43.202,52.464,44.084z"/>
		<path fill-rule="evenodd" clip-rule="evenodd" d="M16.067,11.773c0.83-0.769,1.488-1.499,2.269-2.062
			c0.575-0.413,1.333-0.501,2.045-0.269c0.206,0.066,0.435,0.274,0.516,0.474c0.289,0.702,0.256,1.423-0.049,2.12
			c-0.124,0.284-0.316,0.378-0.662,0.322C18.869,12.144,17.544,11.979,16.067,11.773z"/>
		<path fill-rule="evenodd" clip-rule="evenodd" d="M28.461,13.493c-1.344-0.184-2.608-0.357-3.942-0.539
			c0.714-0.872,1.468-1.507,2.586-1.54c0.828-0.024,1.318,0.414,1.355,1.237C28.471,12.906,28.461,13.163,28.461,13.493z"/>
		<path fill-rule="evenodd" clip-rule="evenodd" d="M50.288,35.831c-0.346-1.309-0.672-2.544-1.005-3.815
			c0.237-0.05,0.437-0.115,0.64-0.134c1.068-0.105,1.56,0.351,1.551,1.429C51.466,34.381,51.271,34.808,50.288,35.831z"/>
	</g>
</g>
<g id="Layer_9" display="none">
	<g display="inline">
		<g>
			<polygon fill="#010101" points="41.454,5.396 14.573,5.396 3.61,22.675 28.159,28.038 40.483,7.593 53.93,23.542 56.39,23.557 
							"/>
			<path fill="#010101" d="M29.01,29.491L5.759,24.365l0.008,20.112l13.596,5.818V37.418l6.779,2.016v13.763l3.237,1.386v0.022
				l23.178-9.916V25.218v-0.419v-0.985L40.588,9.638L29.01,29.491z M15.045,42.618l-5.761-2.003v-4.829l5.761,1.774V42.618z
				 M15.351,34.727l-5.788-1.653v-4.841l5.788,1.423V34.727z M26.143,37.804l-6.778-1.934v-5.228l6.778,1.665V37.804z
				 M40.717,43.918l-6.966,2.438v-5.647l6.966-2.15V43.918z M43.427,29.727l6.042-1.487v4.998l-6.042,1.739V29.727z M43.375,37.74
				l6.049-1.868v5.001l-6.049,2.113V37.74z M40.774,35.736l-6.963,2.001v-5.643l6.963-1.715V35.736z"/>
		</g>
	</g>
</g>
</svg>
